<?xml version="1.0" standalone="no"?>
<!DOCTYPE svg PUBLIC "-//W3C//DTD SVG 20010904//EN"
 "http://www.w3.org/TR/2001/REC-SVG-20010904/DTD/svg10.dtd">
<svg version="1.0" xmlns="http://www.w3.org/2000/svg"
 width="500.000000pt" height="500.000000pt" viewBox="0 0 500.000000 500.000000"
 preserveAspectRatio="xMidYMid meet">
<metadata>
Created by potrace 1.16, written by Peter Selinger 2001-2019
</metadata>
<g transform="translate(0.000000,500.000000) scale(0.100000,-0.100000)"
fill="#000000" stroke="none">
<path d="M2280 4389 c-215 -25 -456 -96 -642 -190 -303 -153 -550 -371 -739
-653 -507 -754 -420 -1756 211 -2410 166 -172 316 -282 531 -391 532 -267
1165 -269 1704 -6 390 191 695 496 886 886 267 546 263 1175 -13 1720 -291
577 -866 974 -1510 1044 -112 13 -319 12 -428 0z m386 -260 c169 -52 317 -214
359 -391 51 -218 -46 -457 -235 -578 -173 -111 -408 -111 -576 -2 -107 71
-176 154 -222 269 -23 60 -26 82 -26 188 0 106 3 128 26 188 109 274 394 412
674 326z m-1081 -799 c224 -85 360 -281 358 -515 -1 -110 -27 -197 -81 -281
-220 -337 -694 -337 -914 0 -105 161 -109 389 -11 558 60 103 174 196 288 236
87 31 91 31 200 28 74 -3 116 -9 160 -26z m2139 15 c188 -49 343 -203 392
-390 19 -69 18 -209 -2 -276 -28 -95 -74 -171 -143 -239 -117 -116 -251 -167
-411 -157 -202 13 -361 119 -449 299 -95 192 -74 399 59 575 42 54 142 132
204 158 109 46 245 57 350 30z m-1077 -575 c124 -61 187 -172 181 -315 -4 -96
-29 -154 -93 -219 -63 -62 -124 -88 -220 -94 -103 -5 -173 19 -244 86 -105 99
-136 249 -77 377 81 179 278 250 453 165z m-677 -717 c177 -48 328 -201 375
-378 19 -76 19 -204 0 -280 -51 -196 -216 -347 -425 -391 -280 -58 -564 133
-625 421 -18 88 -18 132 0 220 23 109 68 190 149 270 144 142 332 191 526 138z
m1350 0 c179 -49 321 -192 376 -378 53 -182 -13 -409 -157 -539 -109 -98 -216
-139 -364 -139 -147 0 -255 41 -364 139 -190 171 -230 455 -96 679 45 75 84
116 158 165 136 92 289 117 447 73z"/>
</g>
</svg>
